<?xml version="1.0" encoding="UTF-8"?>
<!DOCTYPE svg PUBLIC "-//W3C//DTD SVG 1.0//EN" "http://www.w3.org/TR/2001/REC-SVG-20010904/DTD/svg10.dtd">
<!-- Creator: CorelDRAW 2018 (64-Bit) -->
<svg xmlns="http://www.w3.org/2000/svg" xml:space="preserve" width="50px" height="35px" version="1.0" style="shape-rendering:geometricPrecision; text-rendering:geometricPrecision; image-rendering:optimizeQuality; fill-rule:evenodd; clip-rule:evenodd"
viewBox="0 0 50 35"
 xmlns:xlink="http://www.w3.org/1999/xlink"
 enable-background="new 0 0 52 52">
 <defs>
  <style type="text/css">
   <![CDATA[
    .fil0 {fill:#B591D6}
   ]]>
  </style>
 </defs>
 <g id="Слой_x0020_1">
  <metadata id="CorelCorpID_0Corel-Layer"/>
  <g id="_1665401585600">
   <path class="fil0" d="M46.64 19.47l-1.13 0 0 -4.5c0,-1.24 -1.01,-2.25 -2.25,-2.25l-3.37 0 -7.65 -9.56c-0.86,-1.07 -2.15,-1.69 -3.52,-1.69l-7.96 0c-1.24,0 -2.25,1.01 -2.25,2.25l0 9 -11.25 0c-1.24,0 -2.25,1.01 -2.25,2.25l0 4.5 -1.13 0c-0.62,0 -1.12,0.51 -1.12,1.13l0 2.25c0,0.62 0.5,1.12 1.12,1.12l3.49 0c-0.05,0.37 -0.11,0.74 -0.11,1.13 0,4.35 3.52,7.87 7.87,7.87 4.35,0 7.88,-3.52 7.88,-7.87 0,-0.39 -0.06,-0.76 -0.11,-1.13l4.72 0c-0.05,0.37 -0.11,0.74 -0.11,1.13 0,4.35 3.53,7.87 7.88,7.87 4.35,0 7.87,-3.52 7.87,-7.87 0,-0.39 -0.06,-0.76 -0.11,-1.13l3.49 0c0.62,0 1.12,-0.5 1.12,-1.12l0 -2.25c0,-0.62 -0.5,-1.13 -1.12,-1.13l0 0zm-23.63 -13.5l5.71 0 5.4 6.75 -11.11 0 0 -6.75zm-7.88 22.5c-1.86,0 -3.37,-1.51 -3.37,-3.37 0,-1.86 1.51,-3.38 3.37,-3.38 1.87,0 3.38,1.52 3.38,3.38 0,1.86 -1.51,3.37 -3.38,3.37zm20.26 0c-1.87,0 -3.38,-1.51 -3.38,-3.37 0,-1.86 1.51,-3.38 3.38,-3.38 1.86,0 3.37,1.52 3.37,3.38 0,1.86 -1.51,3.37 -3.37,3.37z"/>
  </g>
 </g>
</svg>
