<?xml version="1.0" encoding="UTF-8"?>
<!DOCTYPE svg PUBLIC "-//W3C//DTD SVG 1.0//EN" "http://www.w3.org/TR/2001/REC-SVG-20010904/DTD/svg10.dtd">
<!-- Creator: CorelDRAW 2018 (64-Bit) -->
<svg xmlns="http://www.w3.org/2000/svg" xml:space="preserve" width="155px" height="50px" version="1.0" style="shape-rendering:geometricPrecision; text-rendering:geometricPrecision; image-rendering:optimizeQuality; fill-rule:evenodd; clip-rule:evenodd"
viewBox="0 0 155 50"
 xmlns:xlink="http://www.w3.org/1999/xlink">
 <defs>
  <style type="text/css">
   <![CDATA[
    .fil0 {fill:indigo}
   ]]>
  </style>
 </defs>
 <g id="Слой_x0020_1">
  <metadata id="CorelCorpID_0Corel-Layer"/>
  <path class="fil0" d="M146.32 35.16c2.82,0 0.92,0 1.66,0.56 -2.93,0 -0.83,-0.01 -1.66,-0.56zm-135.06 -16.6c0.06,-0.06 0.16,0.09 0.16,0.16l-0.16 -0.16zm135.06 16.6c-6.82,-1.58 -3.79,-10.59 -18.19,-15.02 -1.36,-0.42 -2.74,-0.76 -4.45,-1.08l-3.69 -0.75c-0.11,-0.03 -0.31,-0.11 -0.4,-0.15 -0.09,-0.03 -0.28,-0.08 -0.4,-0.15 5.87,0 11.79,2.23 16.13,3.79 5.63,2.02 10.71,6.14 13.21,6.72 -0.35,4.2 -4.23,2.44 -2.21,6.64zm-132.85 -17.15l0.17 0.16c-0.01,-0.01 -0.22,-0.11 -0.17,-0.16zm105.72 0l-3.32 -0.56c1.07,0 2.31,-0.09 3.32,0.56zm-103.5 -0.56c0.59,-0.59 2.1,0.88 0.62,0.29 -0.02,-0.01 -1.55,0.64 -0.62,-0.29zm3.32 -0.55c0.59,-0.59 2.1,0.88 0.62,0.29 -0.02,-0.01 -1.55,0.64 -0.62,-0.29zm3.32 -0.55c0.59,-0.59 2.1,0.87 0.62,0.28 -0.02,0 -1.55,0.64 -0.62,-0.28zm4.98 -0.56c0.6,-0.6 3.02,0.83 0.91,0.29 -0.49,-0.13 -1.84,0.65 -0.91,-0.29zm-22.69 -1.66c0,6.59 2.09,3.18 0,12.18 1.85,-0.5 3.23,-1.88 4.97,-2.78 1.61,-0.83 3.36,-1.78 5.21,-2.53 14.25,-5.78 37.19,0.33 52.92,0.33 2.18,0 4.5,0.08 6.66,0.01l19.35 -2.23c-10.02,0 -21.1,0.44 -30.13,-0.86 -9.76,-1.4 -18.17,-2.46 -29.09,-2.46l14.94 -0.55c2.14,-0.11 2.71,-0.56 4.98,-0.56 -1.02,-1.39 0.47,-0.77 -5.21,-1.98 -2.28,-0.48 -4.44,-1.17 -6.41,-1.34 0.58,-0.5 -0.17,0 0.95,-0.71l3.81 -1.72c13.26,-4.55 27.49,-5.04 41.07,-1.33 3.6,0.98 10.95,3.39 12.84,5.98l-11.62 1.1c4.83,0 19.47,2.22 24.91,2.22l0 0.55c-6.03,0 -9.96,-0.55 -16.05,-0.55 -4.2,0 -17.99,-0.55 -21.02,0.57 -1.37,0.5 -0.53,0.16 -1.13,0.54 4.19,0 6.29,0.56 9.95,0.57 3.38,0 7.21,-0.2 10.54,-0.02 2.39,0.13 2.03,0.43 4.42,0.56 8.33,0.43 4.55,-0.35 15.18,1.42 8.94,1.48 16.48,3 21.27,10.28 1.97,3 1.97,4.43 2.85,8.22 4.06,0.09 7.88,1.72 12.18,-0.55 -0.33,-3.92 -2.21,-2.86 -2.21,-6.65 0,-2.48 5.77,-6.6 -12.38,-13.08 -3.89,-1.38 -6.53,-2.35 -10.97,-2.87 -4.5,-0.54 -8.35,-0.8 -12.96,-1.43 -22.67,-3.13 -18.47,-12.51 -50.04,-12.51 -12.2,0 -20.24,3.56 -29.77,6.21 -9.61,2.68 -18.61,5.97 -30.01,5.97zm106.27 32.66l42.07 0 0 -1.66 -42.07 0 0 1.66zm-107.93 0l40.96 0 0 -1.66 -40.96 0 0 1.66zm29.45 -10.32c-0.61,0.51 -1.19,0.87 -1.74,1.08 -0.56,0.21 -1.16,0.32 -1.8,0.32 -1.05,0 -1.86,-0.26 -2.42,-0.77 -0.57,-0.51 -0.85,-1.17 -0.85,-1.96 0,-0.47 0.11,-0.9 0.32,-1.28 0.21,-0.39 0.49,-0.7 0.84,-0.93 0.34,-0.24 0.73,-0.42 1.17,-0.54 0.32,-0.08 0.8,-0.16 1.44,-0.24 1.31,-0.15 2.28,-0.34 2.9,-0.56 0,-0.22 0.01,-0.36 0.01,-0.42 0,-0.65 -0.16,-1.12 -0.46,-1.39 -0.42,-0.37 -1.04,-0.55 -1.86,-0.55 -0.76,0 -1.33,0.14 -1.69,0.41 -0.37,0.26 -0.63,0.74 -0.81,1.42l-1.59 -0.22c0.15,-0.68 0.39,-1.23 0.72,-1.65 0.33,-0.42 0.81,-0.74 1.44,-0.96 0.62,-0.23 1.35,-0.34 2.17,-0.34 0.82,0 1.49,0.09 2,0.29 0.51,0.19 0.89,0.43 1.13,0.72 0.24,0.29 0.41,0.66 0.51,1.11 0.05,0.27 0.08,0.77 0.08,1.49l0 2.15c0,1.51 0.03,2.46 0.1,2.86 0.06,0.4 0.2,0.79 0.4,1.15l-1.7 0c-0.16,-0.34 -0.27,-0.74 -0.31,-1.19zm-0.13 -3.6c-0.59,0.24 -1.48,0.44 -2.66,0.61 -0.67,0.09 -1.14,0.2 -1.42,0.32 -0.28,0.12 -0.49,0.3 -0.64,0.52 -0.15,0.23 -0.23,0.49 -0.23,0.77 0,0.43 0.16,0.79 0.49,1.07 0.33,0.29 0.81,0.43 1.44,0.43 0.63,0 1.18,-0.13 1.67,-0.4 0.49,-0.27 0.85,-0.65 1.08,-1.12 0.17,-0.36 0.26,-0.9 0.26,-1.61l0.01 -0.59zm4.13 -4.78l3.74 0c0.91,0 1.6,0.08 2.05,0.23 0.44,0.15 0.83,0.43 1.15,0.84 0.32,0.42 0.48,0.9 0.48,1.47 0,0.46 -0.1,0.86 -0.28,1.2 -0.19,0.34 -0.48,0.63 -0.86,0.86 0.45,0.15 0.82,0.43 1.12,0.84 0.3,0.41 0.44,0.9 0.44,1.46 -0.06,0.91 -0.38,1.58 -0.97,2.02 -0.59,0.44 -1.44,0.65 -2.56,0.65l-4.31 0 0 -9.57zm1.63 4.04l1.72 0c0.68,0 1.16,-0.04 1.41,-0.11 0.26,-0.07 0.49,-0.22 0.69,-0.44 0.21,-0.22 0.31,-0.48 0.31,-0.79 0,-0.51 -0.18,-0.86 -0.53,-1.06 -0.36,-0.2 -0.97,-0.29 -1.83,-0.29l-1.77 0 0 2.69zm0 4.21l2.13 0c0.91,0 1.54,-0.11 1.88,-0.32 0.35,-0.22 0.52,-0.58 0.54,-1.11 0,-0.3 -0.09,-0.59 -0.29,-0.85 -0.2,-0.26 -0.46,-0.43 -0.78,-0.5 -0.31,-0.07 -0.82,-0.1 -1.53,-0.1l-1.95 0 0 2.88zm6.92 -8.25l7.75 0 0 1.35 -3.06 0 0 8.22 -1.63 0 0 -8.22 -3.06 0 0 -1.35zm8.49 4.79c0,-1.77 0.49,-3.08 1.47,-3.93 0.83,-0.71 1.83,-1.06 3.01,-1.06 1.32,0 2.39,0.43 3.23,1.29 0.83,0.86 1.25,2.05 1.25,3.56 0,1.23 -0.18,2.2 -0.55,2.9 -0.37,0.71 -0.91,1.25 -1.62,1.64 -0.7,0.39 -1.47,0.59 -2.31,0.59 -1.34,0 -2.42,-0.43 -3.25,-1.29 -0.82,-0.85 -1.23,-2.09 -1.23,-3.7zm1.65 0c0,1.22 0.27,2.14 0.81,2.75 0.54,0.61 1.21,0.91 2.02,0.91 0.81,0 1.48,-0.3 2.02,-0.92 0.53,-0.61 0.8,-1.54 0.8,-2.79 0,-1.18 -0.27,-2.08 -0.81,-2.68 -0.54,-0.61 -1.21,-0.92 -2.01,-0.92 -0.81,0 -1.48,0.3 -2.02,0.91 -0.54,0.61 -0.81,1.52 -0.81,2.74zm15.47 1.28l1.59 0.22c-0.18,1.09 -0.62,1.94 -1.34,2.56 -0.71,0.62 -1.6,0.93 -2.64,0.93 -1.31,0 -2.36,-0.43 -3.15,-1.28 -0.8,-0.86 -1.19,-2.08 -1.19,-3.68 0,-1.03 0.17,-1.93 0.51,-2.71 0.34,-0.77 0.86,-1.35 1.56,-1.73 0.7,-0.39 1.46,-0.58 2.28,-0.58 1.04,0 1.89,0.26 2.55,0.78 0.66,0.53 1.08,1.28 1.27,2.24l-1.57 0.24c-0.15,-0.64 -0.41,-1.12 -0.8,-1.45 -0.38,-0.32 -0.84,-0.49 -1.38,-0.49 -0.82,0 -1.48,0.3 -2,0.88 -0.51,0.59 -0.76,1.51 -0.76,2.78 0,1.28 0.24,2.22 0.73,2.8 0.5,0.58 1.14,0.87 1.93,0.87 0.64,0 1.17,-0.19 1.6,-0.58 0.43,-0.39 0.7,-0.99 0.81,-1.8zm9.5 0.41l1.68 0.22c-0.26,0.97 -0.75,1.73 -1.46,2.27 -0.72,0.54 -1.63,0.81 -2.74,0.81 -1.39,0 -2.5,-0.43 -3.32,-1.29 -0.82,-0.86 -1.22,-2.07 -1.22,-3.62 0,-1.61 0.41,-2.86 1.23,-3.74 0.83,-0.89 1.91,-1.33 3.22,-1.33 1.28,0 2.32,0.43 3.13,1.3 0.81,0.87 1.22,2.09 1.22,3.67 0,0.1 -0.01,0.24 -0.01,0.43l-7.13 0c0.06,1.05 0.35,1.86 0.89,2.41 0.53,0.56 1.2,0.84 1.99,0.84 0.6,0 1.1,-0.16 1.52,-0.47 0.42,-0.31 0.76,-0.82 1,-1.5zm-5.31 -2.61l5.33 0c-0.07,-0.8 -0.28,-1.4 -0.61,-1.81 -0.52,-0.62 -1.19,-0.94 -2.01,-0.94 -0.74,0 -1.36,0.25 -1.87,0.75 -0.51,0.5 -0.79,1.17 -0.84,2zm9.04 9.38l0 -13.25 1.48 0 0 1.26c0.35,-0.49 0.74,-0.85 1.18,-1.1 0.44,-0.24 0.97,-0.36 1.59,-0.36 0.82,0 1.54,0.21 2.16,0.63 0.63,0.41 1.1,1.01 1.42,1.77 0.32,0.77 0.47,1.6 0.47,2.52 0,0.97 -0.17,1.85 -0.52,2.64 -0.35,0.78 -0.86,1.38 -1.53,1.79 -0.67,0.42 -1.37,0.63 -2.11,0.63 -0.54,0 -1.03,-0.12 -1.46,-0.34 -0.43,-0.23 -0.78,-0.52 -1.05,-0.86l0 4.67 -1.63 0zm1.48 -8.4c0,1.22 0.25,2.13 0.74,2.72 0.5,0.58 1.1,0.88 1.81,0.88 0.72,0 1.33,-0.3 1.85,-0.91 0.51,-0.61 0.77,-1.55 0.77,-2.83 0,-1.22 -0.25,-2.13 -0.76,-2.73 -0.5,-0.61 -1.09,-0.91 -1.79,-0.91 -0.69,0 -1.3,0.32 -1.83,0.97 -0.53,0.64 -0.79,1.58 -0.79,2.81zm8.78 -4.85l3.74 0c0.92,0 1.6,0.08 2.05,0.23 0.44,0.15 0.83,0.43 1.15,0.84 0.32,0.42 0.48,0.9 0.48,1.47 0,0.46 -0.09,0.86 -0.28,1.2 -0.19,0.34 -0.48,0.63 -0.86,0.86 0.45,0.15 0.82,0.43 1.12,0.84 0.3,0.41 0.45,0.9 0.45,1.46 -0.06,0.91 -0.39,1.58 -0.98,2.02 -0.58,0.44 -1.44,0.65 -2.56,0.65l-4.31 0 0 -9.57zm1.63 4.04l1.72 0c0.69,0 1.16,-0.04 1.41,-0.11 0.26,-0.07 0.49,-0.22 0.69,-0.44 0.21,-0.22 0.31,-0.48 0.31,-0.79 0,-0.51 -0.18,-0.86 -0.53,-1.06 -0.36,-0.2 -0.97,-0.29 -1.83,-0.29l-1.77 0 0 2.69zm0 4.21l2.13 0c0.92,0 1.54,-0.11 1.89,-0.32 0.34,-0.22 0.52,-0.58 0.53,-1.11 0,-0.3 -0.09,-0.59 -0.29,-0.85 -0.2,-0.26 -0.46,-0.43 -0.78,-0.5 -0.31,-0.07 -0.82,-0.1 -1.52,-0.1l-1.96 0 0 2.88zm8.18 -8.25l1.62 0 0 7.3 4.51 -7.3 1.74 0 0 9.57 -1.62 0 0 -7.25 -4.5 7.25 -1.75 0 0 -9.57zm16.56 6.07l1.59 0.22c-0.18,1.09 -0.62,1.94 -1.34,2.56 -0.72,0.62 -1.6,0.93 -2.64,0.93 -1.31,0 -2.36,-0.43 -3.15,-1.28 -0.8,-0.86 -1.19,-2.08 -1.19,-3.68 0,-1.03 0.17,-1.93 0.51,-2.71 0.34,-0.77 0.86,-1.35 1.56,-1.73 0.7,-0.39 1.46,-0.58 2.28,-0.58 1.04,0 1.89,0.26 2.55,0.78 0.66,0.53 1.08,1.28 1.27,2.24l-1.57 0.24c-0.15,-0.64 -0.42,-1.12 -0.8,-1.45 -0.38,-0.32 -0.84,-0.49 -1.38,-0.49 -0.82,0 -1.48,0.3 -2,0.88 -0.51,0.59 -0.77,1.51 -0.77,2.78 0,1.28 0.25,2.22 0.74,2.8 0.5,0.58 1.14,0.87 1.93,0.87 0.64,0 1.17,-0.19 1.6,-0.58 0.42,-0.39 0.7,-0.99 0.81,-1.8zm-66.24 9.92l1.87 0c0.46,0 0.8,0.04 1.03,0.12 0.22,0.07 0.41,0.21 0.57,0.42 0.16,0.2 0.24,0.45 0.24,0.73 0,0.23 -0.04,0.43 -0.14,0.6 -0.09,0.17 -0.24,0.32 -0.43,0.43 0.23,0.08 0.41,0.22 0.56,0.42 0.15,0.21 0.23,0.45 0.23,0.73 -0.03,0.46 -0.2,0.79 -0.49,1.01 -0.3,0.22 -0.72,0.33 -1.28,0.33l-2.16 0 0 -4.79zm0.82 2.02l0.86 0c0.34,0 0.58,-0.02 0.7,-0.05 0.13,-0.04 0.25,-0.11 0.35,-0.22 0.1,-0.11 0.15,-0.24 0.15,-0.4 0,-0.25 -0.09,-0.43 -0.26,-0.53 -0.18,-0.1 -0.49,-0.15 -0.92,-0.15l-0.88 0 0 1.35zm0 2.1l1.06 0c0.46,0 0.77,-0.05 0.95,-0.15 0.17,-0.11 0.26,-0.3 0.27,-0.56 0,-0.15 -0.05,-0.29 -0.15,-0.42 -0.1,-0.13 -0.23,-0.22 -0.39,-0.25 -0.16,-0.04 -0.41,-0.05 -0.77,-0.05l-0.97 0 0 1.43zm6.65 -4.12l1.87 0c0.46,0 0.8,0.04 1.02,0.12 0.22,0.07 0.42,0.21 0.58,0.42 0.16,0.2 0.24,0.45 0.24,0.73 0,0.23 -0.05,0.43 -0.14,0.6 -0.1,0.17 -0.24,0.32 -0.43,0.43 0.22,0.08 0.41,0.22 0.56,0.42 0.15,0.21 0.22,0.45 0.22,0.73 -0.03,0.46 -0.19,0.79 -0.49,1.01 -0.29,0.22 -0.72,0.33 -1.28,0.33l-2.15 0 0 -4.79zm0.81 2.02l0.86 0c0.35,0 0.58,-0.02 0.71,-0.05 0.13,-0.04 0.24,-0.11 0.35,-0.22 0.1,-0.11 0.15,-0.24 0.15,-0.4 0,-0.25 -0.09,-0.43 -0.27,-0.53 -0.18,-0.1 -0.48,-0.15 -0.91,-0.15l-0.89 0 0 1.35zm0 2.1l1.07 0c0.46,0 0.77,-0.05 0.94,-0.15 0.17,-0.11 0.26,-0.3 0.27,-0.56 0,-0.15 -0.05,-0.29 -0.15,-0.42 -0.1,-0.13 -0.23,-0.22 -0.39,-0.25 -0.15,-0.04 -0.41,-0.05 -0.76,-0.05l-0.98 0 0 1.43zm3.68 -1.72c0,-0.89 0.25,-1.54 0.74,-1.97 0.41,-0.35 0.92,-0.53 1.51,-0.53 0.66,0 1.19,0.21 1.61,0.65 0.42,0.42 0.63,1.02 0.63,1.78 0,0.61 -0.1,1.1 -0.28,1.45 -0.18,0.35 -0.45,0.62 -0.81,0.82 -0.35,0.19 -0.73,0.29 -1.15,0.29 -0.67,0 -1.21,-0.21 -1.63,-0.64 -0.41,-0.43 -0.62,-1.05 -0.62,-1.85zm0.83 0c0,0.61 0.14,1.07 0.4,1.37 0.27,0.3 0.61,0.46 1.02,0.46 0.4,0 0.74,-0.16 1.01,-0.46 0.26,-0.31 0.4,-0.77 0.4,-1.4 0,-0.59 -0.14,-1.04 -0.41,-1.34 -0.27,-0.3 -0.6,-0.46 -1,-0.46 -0.41,0 -0.75,0.15 -1.02,0.46 -0.26,0.3 -0.4,0.76 -0.4,1.37zm4.61 4.23l0 -6.63 0.74 0 0 0.63c0.17,-0.24 0.37,-0.43 0.59,-0.55 0.22,-0.12 0.48,-0.18 0.79,-0.18 0.41,0 0.77,0.1 1.09,0.32 0.31,0.2 0.54,0.5 0.7,0.88 0.16,0.39 0.24,0.8 0.24,1.26 0,0.49 -0.09,0.93 -0.26,1.32 -0.18,0.39 -0.43,0.69 -0.77,0.9 -0.33,0.21 -0.68,0.31 -1.05,0.31 -0.27,0 -0.52,-0.06 -0.73,-0.17 -0.22,-0.11 -0.39,-0.26 -0.53,-0.43l0 2.34 -0.81 0zm0.74 -4.2c0,0.61 0.12,1.06 0.37,1.35 0.25,0.3 0.55,0.45 0.9,0.45 0.36,0 0.67,-0.16 0.93,-0.46 0.25,-0.3 0.38,-0.78 0.38,-1.41 0,-0.61 -0.12,-1.07 -0.38,-1.37 -0.25,-0.3 -0.54,-0.45 -0.89,-0.45 -0.35,0 -0.65,0.16 -0.92,0.48 -0.26,0.32 -0.39,0.79 -0.39,1.41zm4.09 -0.03c0,-0.89 0.24,-1.54 0.74,-1.97 0.4,-0.35 0.91,-0.53 1.5,-0.53 0.66,0 1.2,0.21 1.61,0.65 0.42,0.42 0.63,1.02 0.63,1.78 0,0.61 -0.09,1.1 -0.28,1.45 -0.18,0.35 -0.45,0.62 -0.81,0.82 -0.35,0.19 -0.73,0.29 -1.15,0.29 -0.67,0 -1.21,-0.21 -1.63,-0.64 -0.41,-0.43 -0.61,-1.05 -0.61,-1.85zm0.83 0c0,0.61 0.13,1.07 0.4,1.37 0.27,0.3 0.6,0.46 1.01,0.46 0.4,0 0.74,-0.16 1.01,-0.46 0.26,-0.31 0.4,-0.77 0.4,-1.4 0,-0.59 -0.14,-1.04 -0.41,-1.34 -0.26,-0.3 -0.6,-0.46 -1,-0.46 -0.41,0 -0.74,0.15 -1.01,0.46 -0.27,0.3 -0.4,0.76 -0.4,1.37zm4.6 -2.4l0.81 0 0 1.99 2.25 0 0 -1.99 0.82 0 0 4.79 -0.82 0 0 -2.12 -2.25 0 0 2.12 -0.81 0 0 -4.79zm8.36 3.24l0.84 0.11c-0.13,0.49 -0.38,0.87 -0.73,1.14 -0.36,0.27 -0.81,0.4 -1.37,0.4 -0.7,0 -1.25,-0.21 -1.66,-0.64 -0.41,-0.43 -0.61,-1.04 -0.61,-1.82 0,-0.8 0.2,-1.42 0.62,-1.86 0.41,-0.45 0.95,-0.67 1.61,-0.67 0.63,0 1.16,0.22 1.56,0.65 0.4,0.44 0.61,1.05 0.61,1.84 0,0.04 0,0.12 -0.01,0.21l-3.56 0c0.03,0.53 0.18,0.93 0.44,1.21 0.27,0.28 0.6,0.42 1,0.42 0.3,0 0.55,-0.08 0.76,-0.24 0.21,-0.15 0.38,-0.41 0.5,-0.75zm-2.66 -1.3l2.67 0c-0.04,-0.4 -0.14,-0.71 -0.31,-0.91 -0.25,-0.31 -0.59,-0.47 -1,-0.47 -0.37,0 -0.68,0.13 -0.94,0.38 -0.25,0.25 -0.39,0.58 -0.42,1zm7.32 -1.94l0 2.07c0.26,0 0.44,-0.05 0.55,-0.15 0.11,-0.1 0.26,-0.38 0.46,-0.86 0.18,-0.46 0.35,-0.75 0.5,-0.87 0.15,-0.13 0.38,-0.19 0.7,-0.19l0.3 0 0 0.67 -0.22 0c-0.22,0 -0.36,0.03 -0.42,0.09 -0.06,0.07 -0.16,0.26 -0.29,0.59 -0.11,0.31 -0.23,0.53 -0.33,0.65 -0.1,0.12 -0.26,0.23 -0.47,0.33 0.35,0.1 0.69,0.42 1.02,0.98l0.89 1.48 -0.89 0 -0.87 -1.48c-0.17,-0.3 -0.33,-0.5 -0.46,-0.6 -0.13,-0.09 -0.29,-0.13 -0.47,-0.13l0 2.21 -0.83 0 0 -2.21c-0.18,0 -0.34,0.04 -0.47,0.13 -0.13,0.1 -0.28,0.3 -0.46,0.6l-0.87 1.48 -0.89 0 0.88 -1.48c0.34,-0.56 0.68,-0.88 1.03,-0.98 -0.24,-0.11 -0.41,-0.23 -0.5,-0.36 -0.1,-0.13 -0.24,-0.44 -0.43,-0.94 -0.07,-0.17 -0.14,-0.27 -0.21,-0.3 -0.08,-0.04 -0.2,-0.06 -0.35,-0.06 -0.04,0 -0.12,0 -0.24,0l0 -0.67 0.11 0c0.31,0 0.54,0.02 0.66,0.06 0.13,0.03 0.24,0.12 0.35,0.24 0.09,0.12 0.23,0.37 0.39,0.76 0.19,0.47 0.34,0.75 0.45,0.85 0.1,0.11 0.29,0.16 0.55,0.16l0 -2.07 0.83 0zm6.54 3.24l0.84 0.11c-0.13,0.49 -0.38,0.87 -0.73,1.14 -0.36,0.27 -0.82,0.4 -1.37,0.4 -0.7,0 -1.25,-0.21 -1.66,-0.64 -0.41,-0.43 -0.61,-1.04 -0.61,-1.82 0,-0.8 0.2,-1.42 0.62,-1.86 0.41,-0.45 0.95,-0.67 1.61,-0.67 0.63,0 1.16,0.22 1.56,0.65 0.4,0.44 0.61,1.05 0.61,1.84 0,0.04 0,0.12 -0.01,0.21l-3.56 0c0.03,0.53 0.17,0.93 0.44,1.21 0.27,0.28 0.6,0.42 1,0.42 0.3,0 0.55,-0.08 0.76,-0.24 0.21,-0.15 0.38,-0.41 0.5,-0.75zm-2.66 -1.3l2.67 0c-0.04,-0.4 -0.14,-0.71 -0.31,-0.91 -0.25,-0.31 -0.59,-0.47 -1,-0.47 -0.37,0 -0.68,0.13 -0.94,0.38 -0.25,0.25 -0.39,0.58 -0.42,1z"/>
 </g>
</svg>
